<?xml version="1.0" encoding="utf-8"?>
<!-- Generator: Adobe Illustrator 22.1.0, SVG Export Plug-In . SVG Version: 6.00 Build 0)  -->
<svg version="1.1" id="Layer_1" xmlns="http://www.w3.org/2000/svg" xmlns:xlink="http://www.w3.org/1999/xlink" x="0px" y="0px"
	 viewBox="0 0 32 32" style="enable-background:new 0 0 32 32;" xml:space="preserve">
<title>telegram</title>
<path d="M16,0.5C7.4,0.5,0.5,7.4,0.5,16S7.4,31.5,16,31.5c8.6,0,15.5-6.9,15.5-15.5S24.6,0.5,16,0.5z M23.6,11.1l-2.5,12
	c-0.2,0.9-0.7,1.1-1.4,0.7l-3.9-2.9l-1.9,1.8c-0.2,0.2-0.4,0.4-0.8,0.4l0.3-3.9l7.2-6.5c0.3-0.3-0.1-0.4-0.5-0.2l-8.9,5.6l-3.8-1.2
	c-0.8-0.3-0.8-0.8,0.2-1.2l14.9-5.8C23.2,9.6,23.8,10.1,23.6,11.1L23.6,11.1z"/>
</svg>
